# xmcd
#
# Track frame offsets: 
#        182
#        16606
#        37498
#        69974
#        92596
#        114517
#        137854
#        139888
#        154649
#        173026
#        199722
#        219971
#
# Disc length: 3314 seconds
#
# Revision: 4
# Processed by: cddbd v1.5.2PL0 Copyright (c) Steve Scherf et al.
# Submitted via: ExactAudioCopy v0.99pb5
#
DISCID=a00cf00c
DTITLE=Mary J. Blige - What's The 411? Remix
DYEAR=1993
DGENRE=R&B
TTITLE0=Leave A Message (Remix 'Buttnaked' Tim Dawg)
TTITLE1=You Don't Have To Worry (Remix Tony Dofat)
TTITLE2=My Love (Remix Teddy Riley)
TTITLE3=Real Love (Remix Daddy-O)
TTITLE4=What's The 411? (Remix Tumblin' Dice)
TTITLE5=Reminisce (Remix Jesse West)
TTITLE6=Mary and Andre (Feat. 'Buttnaked' Tim Dawg)
TTITLE7=Sweet Thing (Remix Mark Sparks)
TTITLE8=Love No Limite (Remix Daddy-O)
TTITLE9=You Remind Me (Remix Sean 'Puffy' Combs)
TTITLE10=Changes I've Been Going Through (Remix Teddy Riley)
TTITLE11=I Don't Want To Do Anything (Remix Vincent Herbert)
EXTD=
EXTT0=
EXTT1=
EXTT2=
EXTT3=
EXTT4=
EXTT5=
EXTT6=
EXTT7=
EXTT8=
EXTT9=
EXTT10=
EXTT11=
PLAYORDER=
